<svg width="128" height="128" viewBox="0 0 128 128" fill="none" xmlns="http://www.w3.org/2000/svg">
  <defs>
    <linearGradient id="seshlyGradient" x1="0%" y1="0%" x2="100%" y2="100%">
      <stop offset="0%" style="stop-color:#0EA5E9;stop-opacity:1" />
      <stop offset="100%" style="stop-color:#14B8A6;stop-opacity:1" />
    </linearGradient>
  </defs>
  <rect width="128" height="128" rx="24" fill="url(#seshlyGradient)"/>
  <path
    transform="translate(24, 24)"
    d="M50 15C50 15 60 18 60 28C60 35 55 38 48 40C41 42 32 44 32 50C32 56 38 58 42 58C48 58 52 55 54 52M30 65C30 65 20 62 20 52C20 45 25 42 32 40C39 38 48 36 48 30C48 24 42 22 38 22C32 22 28 25 26 28"
    stroke="white"
    strokeWidth="6"
    strokeLinecap="round"
    strokeLinejoin="round"
  />
</svg>